<?xml version="1.0" encoding="UTF-8" standalone="no"?>
<!-- Created with Inkscape (http://www.inkscape.org/) -->

<svg
   width="200.00024"
   height="58.373001"
   viewBox="0 0 52.916732 15.444523"
   version="1.1"
   id="svg5"
   sodipodi:docname="logo.svg"
   inkscape:version="1.2.2 (b0a8486541, 2022-12-01)"
   xmlns:inkscape="http://www.inkscape.org/namespaces/inkscape"
   xmlns:sodipodi="http://sodipodi.sourceforge.net/DTD/sodipodi-0.dtd"
   xmlns="http://www.w3.org/2000/svg"
   xmlns:svg="http://www.w3.org/2000/svg">
  <sodipodi:namedview
     id="namedview7"
     pagecolor="#ffffff"
     bordercolor="#000000"
     borderopacity="0.25"
     inkscape:showpageshadow="2"
     inkscape:pageopacity="0.0"
     inkscape:pagecheckerboard="0"
     inkscape:deskcolor="#d1d1d1"
     inkscape:document-units="mm"
     showgrid="false"
     inkscape:zoom="7.1268238"
     inkscape:cx="87.837165"
     inkscape:cy="45.041102"
     inkscape:window-width="2560"
     inkscape:window-height="1365"
     inkscape:window-x="1920"
     inkscape:window-y="0"
     inkscape:window-maximized="1"
     inkscape:current-layer="layer1"
     showguides="true" />
  <defs
     id="defs2" />
  <g
     inkscape:label="Vrstva 1"
     inkscape:groupmode="layer"
     id="layer1"
     transform="translate(-1.2327781,-1.6527994)">
    <text
       xml:space="preserve"
       style="font-size:5.89261px;display:none;fill:#000000;stroke:#ffffff;stroke-width:0.092797;stroke-dasharray:none;stroke-opacity:1"
       x="2.6972666"
       y="11.446511"
       id="text113"><tspan
         sodipodi:role="line"
         id="tspan111"
         style="stroke:#ffffff;stroke-width:0.092797;stroke-dasharray:none;stroke-opacity:1"
         x="2.6972666"
         y="11.446511">project: elements</tspan></text>
    <rect
       style="fill:none;fill-opacity:1;stroke:#000000;stroke-width:0.371188;stroke-dasharray:none;stroke-opacity:1"
       id="rect297"
       width="26.845236"
       height="7.9902334"
       x="24.500402"
       y="5.3178935" />
  </g>
  <g
     aria-label="project: elements"
     id="text113-3"
     style="font-size:5.89261px;stroke:#ffffff;stroke-width:0.092797"
     transform="translate(-1.276646,-1.6726828)"
     inkscape:label="Static">
    <path
       d="m 4.700754,8.2291462 q 0.5833684,0 0.936925,0.4065901 0.3594492,0.4065901 0.3594492,1.2256629 0,0.8072878 -0.3594492,1.2256628 -0.3535566,0.418375 -0.9428176,0.418375 -0.3653418,0 -0.6069388,-0.13553 -0.2357044,-0.141422 -0.3712345,-0.324093 h -0.035356 q 0.011785,0.100174 0.02357,0.253382 0.011785,0.153208 0.011785,0.265167 v 1.296375 H 3.1981384 V 8.2880723 h 0.424268 l 0.070711,0.4301605 h 0.02357 Q 3.8581108,8.5119915 4.0879226,8.3705688 4.3177343,8.2291462 4.700754,8.2291462 Z M 4.606472,8.6651993 q -0.483194,0 -0.6835427,0.2710601 -0.1944562,0.27106 -0.2062414,0.8249654 v 0.1001744 q 0,0.5833688 0.1885635,0.9015698 0.1944562,0.312308 0.7130059,0.312308 0.2887379,0 0.4714088,-0.159101 0.1885635,-0.1591 0.2769526,-0.43016 0.094282,-0.276953 0.094282,-0.6305095 0,-0.5421201 -0.212134,-0.8662136 Q 5.0425254,8.6651993 4.606472,8.6651993 Z"
       id="path409" />
    <path
       d="m 8.2952448,8.2291462 q 0.088389,0 0.1885635,0.011785 0.106067,0.00589 0.1826709,0.02357 l -0.064819,0.477302 Q 8.5250566,8.7241254 8.4307748,8.7123402 8.3423857,8.700555 8.2598891,8.700555 q -0.241597,0 -0.453731,0.13553 Q 7.5940242,8.9657224 7.4643868,9.2073194 7.3406419,9.4430238 7.3406419,9.7612248 V 11.446511 H 6.8220923 V 8.2880723 h 0.4242679 l 0.058926,0.5774758 h 0.02357 Q 7.4820646,8.6062732 7.7236616,8.4177097 7.9652586,8.2291462 8.2952448,8.2291462 Z"
       id="path411" />
    <path
       d="m 11.883843,9.8613992 q 0,0.7837168 -0.400698,1.2138778 -0.394805,0.43016 -1.072455,0.43016 -0.4183753,0 -0.7483615,-0.188563 Q 9.338235,11.122418 9.1496715,10.757076 8.9611079,10.385841 8.9611079,9.8613992 q 0,-0.7837172 0.3948049,-1.2079851 0.3948049,-0.4242679 1.0724552,-0.4242679 0.43016,0 0.754254,0.1944561 0.329986,0.1885635 0.512657,0.5539053 0.188564,0.3594493 0.188564,0.8838916 z m -2.3865075,0 q 0,0.5597978 0.2180265,0.8897838 0.2239192,0.324094 0.707113,0.324094 0.477302,0 0.701221,-0.324094 0.223919,-0.329986 0.223919,-0.8897838 0,-0.559798 -0.223919,-0.8779989 -0.223919,-0.318201 -0.707113,-0.318201 -0.4831944,0 -0.701221,0.318201 -0.2180265,0.3182009 -0.2180265,0.8779989 z"
       id="path413" />
    <path
       d="m 12.661664,7.4336438 q 0,-0.1708857 0.08839,-0.2474896 0.08839,-0.082497 0.218027,-0.082497 0.117852,0 0.206241,0.082497 0.09428,0.076604 0.09428,0.2474896 0,0.1649931 -0.09428,0.2474896 -0.08839,0.082497 -0.206241,0.082497 -0.129637,0 -0.218027,-0.082497 -0.08839,-0.082497 -0.08839,-0.2474896 z m -0.329986,5.4270942 q -0.147315,0 -0.259275,-0.02357 -0.111959,-0.01768 -0.194456,-0.04714 v -0.418375 q 0.08839,0.02357 0.182671,0.04125 0.09428,0.01768 0.206241,0.01768 0.188564,0 0.312309,-0.106067 0.123745,-0.100174 0.123745,-0.388912 V 8.2880723 h 0.518549 V 11.91792 q 0,0.441946 -0.212134,0.689435 -0.212134,0.253383 -0.67765,0.253383 z"
       id="path415" />
    <path
       d="m 15.442972,8.2291462 q 0.40659,0 0.695328,0.1767783 0.294631,0.1767783 0.447839,0.5008718 0.1591,0.318201 0.1591,0.7483615 v 0.3123083 h -2.162588 q 0.01178,0.5362279 0.27106,0.8190729 0.265168,0.276953 0.736576,0.276953 0.300524,0 0.530335,-0.05303 0.235705,-0.05893 0.483194,-0.164993 V 11.2992 q -0.241597,0.106067 -0.477301,0.153208 -0.235704,0.05303 -0.559798,0.05303 -0.447838,0 -0.795502,-0.182671 -0.341772,-0.18267 -0.536228,-0.54212 -0.188563,-0.365341 -0.188563,-0.8897838 0,-0.5185497 0.170885,-0.8897841 0.176779,-0.3712344 0.489087,-0.5715832 0.318201,-0.2003487 0.736576,-0.2003487 z m -0.0059,0.4242679 q -0.371235,0 -0.589261,0.241597 -0.212134,0.2357044 -0.253383,0.6599723 h 1.608683 Q 16.197226,9.154286 16.014555,8.9067963 15.831884,8.6534141 15.43708,8.6534141 Z"
       id="path417" />
    <path
       d="m 18.81354,11.505437 q -0.418375,0 -0.748361,-0.170885 -0.324094,-0.170886 -0.512657,-0.530335 -0.182671,-0.359449 -0.182671,-0.9192474 0,-0.5833684 0.194456,-0.9487102 0.194456,-0.3653418 0.524442,-0.5362275 0.335879,-0.1708857 0.760147,-0.1708857 0.241597,0 0.465516,0.053033 0.223919,0.047141 0.365342,0.1178522 l -0.1591,0.4301605 q -0.141423,-0.053033 -0.329987,-0.1001744 -0.188563,-0.047141 -0.353556,-0.047141 -0.931033,0 -0.931033,1.1961999 0,0.5715826 0.22392,0.8779986 0.229811,0.300523 0.67765,0.300523 0.259275,0 0.453731,-0.05303 0.200348,-0.05303 0.365342,-0.129638 v 0.459624 q -0.159101,0.0825 -0.353557,0.123744 -0.188564,0.04714 -0.459624,0.04714 z"
       id="path419" />
    <path
       d="m 21.429857,11.081169 q 0.117852,0 0.241597,-0.01768 0.123744,-0.02357 0.200348,-0.04714 v 0.394805 q -0.0825,0.04125 -0.235704,0.06482 -0.153208,0.02946 -0.294631,0.02946 -0.247489,0 -0.459623,-0.0825 -0.206242,-0.08839 -0.335879,-0.300523 -0.129637,-0.212134 -0.129637,-0.595154 V 8.6887698 H 19.968489 V 8.4412801 L 20.42222,8.2350388 20.628462,7.5632812 h 0.306415 v 0.7247911 h 0.913355 v 0.4006975 h -0.913355 v 1.8267092 q 0,0.288738 0.13553,0.43016 0.141423,0.13553 0.35945,0.13553 z"
       id="path421" />
    <path
       d="m 22.425709,8.6062732 q 0,-0.2239192 0.106067,-0.3123083 0.106067,-0.088389 0.253382,-0.088389 0.153208,0 0.259275,0.088389 0.11196,0.088389 0.11196,0.3123083 0,0.212134 -0.11196,0.3064157 -0.106067,0.094282 -0.259275,0.094282 -0.147315,0 -0.253382,-0.094282 -0.106067,-0.094282 -0.106067,-0.3064157 z m 0,2.5220368 q 0,-0.218026 0.106067,-0.306415 0.106067,-0.08839 0.253382,-0.08839 0.153208,0 0.259275,0.08839 0.11196,0.08839 0.11196,0.306415 0,0.212134 -0.11196,0.306416 -0.106067,0.09428 -0.259275,0.09428 -0.147315,0 -0.253382,-0.09428 -0.106067,-0.09428 -0.106067,-0.306416 z"
       id="path423" />
    <path
       d="m 26.833381,8.2291462 q 0.40659,0 0.695328,0.1767783 0.29463,0.1767783 0.447838,0.5008718 0.159101,0.318201 0.159101,0.7483615 V 9.9674661 H 25.97306 q 0.01178,0.5362279 0.27106,0.8190729 0.265167,0.276953 0.736576,0.276953 0.300523,0 0.530335,-0.05303 0.235704,-0.05893 0.483194,-0.164993 V 11.2992 q -0.241597,0.106067 -0.477301,0.153208 -0.235705,0.05303 -0.559798,0.05303 -0.447839,0 -0.795503,-0.182671 -0.341771,-0.18267 -0.536227,-0.54212 -0.188564,-0.365341 -0.188564,-0.8897838 0,-0.5185497 0.170886,-0.8897841 0.176778,-0.3712344 0.489086,-0.5715832 0.318201,-0.2003487 0.736577,-0.2003497 z m -0.0059,0.4242679 q -0.371234,0 -0.589261,0.241597 -0.212134,0.2357044 -0.253382,0.6599723 H 27.59352 Q 27.587635,9.154286 27.404964,8.9067963 27.222293,8.6534141 26.827488,8.6534141 Z"
       id="path425" />
    <path
       d="M 29.455587,11.446511 H 28.937038 V 6.9681276 h 0.518549 z"
       id="path427" />
    <path
       d="m 31.677096,8.2291462 q 0.406591,0 0.695328,0.1767783 0.294631,0.1767783 0.447839,0.5008718 0.1591,0.318201 0.1591,0.7483615 v 0.3123083 h -2.162588 q 0.01179,0.5362279 0.27106,0.8190729 0.265168,0.276953 0.736577,0.276953 0.300523,0 0.530335,-0.05303 0.235704,-0.05893 0.483194,-0.164993 V 11.2992 q -0.241597,0.106067 -0.477302,0.153208 -0.235704,0.05303 -0.559798,0.05303 -0.447838,0 -0.795502,-0.182671 -0.341772,-0.18267 -0.536228,-0.54212 -0.188563,-0.365341 -0.188563,-0.8897838 0,-0.5185497 0.170886,-0.8897841 0.176778,-0.3712344 0.489086,-0.5715832 0.318201,-0.2003487 0.736576,-0.2003487 z m -0.0059,0.4242679 q -0.371235,0 -0.589261,0.241597 -0.212134,0.2357044 -0.253382,0.6599723 h 1.608682 Q 32.431351,9.154286 32.24868,8.9067963 32.066009,8.6534141 31.671204,8.6534141 Z"
       id="path429" />
    <path
       d="m 37.245608,8.2291462 q 0.536228,0 0.801395,0.2769526 0.265167,0.2710601 0.265167,0.8838916 V 11.446511 H 37.799513 V 9.4135608 q 0,-0.7483615 -0.642294,-0.7483615 -0.459624,0 -0.659972,0.2651675 Q 36.30279,9.1955342 36.30279,9.7022987 V 11.446511 H 35.790133 V 9.4135608 q 0,-0.7483615 -0.648187,-0.7483615 -0.477301,0 -0.659972,0.2946305 -0.182671,0.2946305 -0.182671,0.8485359 v 1.6381453 h -0.51855 V 8.2880723 h 0.418376 l 0.0766,0.4301605 h 0.02946 q 0.147315,-0.2474896 0.394805,-0.3653418 0.253382,-0.1237448 0.536227,-0.1237448 0.742469,0 0.966388,0.5303349 h 0.02946 Q 36.39118,8.488421 36.66224,8.3587836 36.939192,8.2291462 37.245608,8.2291462 Z"
       id="path431" />
    <path
       d="m 40.51011,8.2291462 q 0.40659,0 0.695328,0.1767783 0.29463,0.1767783 0.447838,0.5008718 0.159101,0.318201 0.159101,0.7483615 v 0.3123083 h -2.162588 q 0.01179,0.5362279 0.27106,0.8190729 0.265167,0.276953 0.736576,0.276953 0.300523,0 0.530335,-0.05303 0.235705,-0.05893 0.483194,-0.164993 V 11.2992 q -0.241597,0.106067 -0.477301,0.153208 -0.235705,0.05303 -0.559798,0.05303 -0.447839,0 -0.795503,-0.182671 -0.341771,-0.18267 -0.536227,-0.54212 -0.188564,-0.365341 -0.188564,-0.8897838 0,-0.5185497 0.170886,-0.8897841 0.176778,-0.3712344 0.489087,-0.5715832 0.318201,-0.2003487 0.736576,-0.2003487 z m -0.0059,0.4242679 q -0.371234,0 -0.589261,0.241597 -0.212134,0.2357044 -0.253382,0.6599723 H 41.27025 Q 41.264364,9.154286 41.081693,8.9067963 40.899022,8.6534141 40.504217,8.6534141 Z"
       id="path433" />
    <path
       d="m 44.134062,8.2291462 q 0.565691,0 0.854429,0.2769526 0.288738,0.2710601 0.288738,0.8838916 V 11.446511 H 44.764571 V 9.425346 q 0,-0.7601467 -0.707113,-0.7601467 -0.524442,0 -0.724791,0.2946305 -0.200349,0.2946305 -0.200349,0.8485359 V 11.446511 H 42.613769 V 8.2880723 h 0.418375 l 0.0766,0.4301605 h 0.02946 q 0.153208,-0.2474896 0.424268,-0.3653418 0.27106,-0.1237448 0.571583,-0.1237448 z"
       id="path435" />
    <path
       d="m 47.310178,11.081169 q 0.117852,0 0.241597,-0.01768 0.123745,-0.02357 0.200349,-0.04714 v 0.394805 q -0.0825,0.04125 -0.235705,0.06482 -0.153207,0.02946 -0.29463,0.02946 -0.24749,0 -0.459624,-0.0825 -0.206241,-0.08839 -0.335878,-0.300523 -0.129638,-0.212134 -0.129638,-0.595154 V 8.6887698 H 45.848811 V 8.4412801 l 0.453731,-0.2062413 0.206241,-0.6717576 h 0.306416 v 0.7247911 h 0.913354 v 0.4006975 h -0.913354 v 1.8267092 q 0,0.288738 0.13553,0.43016 0.141422,0.13553 0.359449,0.13553 z"
       id="path437" />
    <path
       d="m 50.439153,10.574405 q 0,0.459624 -0.341771,0.695328 -0.341771,0.235704 -0.919247,0.235704 -0.329986,0 -0.571583,-0.05303 -0.235705,-0.05303 -0.418376,-0.147315 V 10.83368 q 0.188564,0.09428 0.453731,0.176778 0.27106,0.0766 0.548013,0.0766 0.394805,0 0.571583,-0.123745 0.176779,-0.129637 0.176779,-0.341771 0,-0.117852 -0.06482,-0.212134 -0.06482,-0.09428 -0.235705,-0.188564 Q 49.472764,10.126564 49.160456,10.00871 48.854041,9.8908622 48.636015,9.77301 48.417988,9.6551578 48.300136,9.4901647 48.182284,9.3251716 48.182284,9.0658968 q 0,-0.4006975 0.324093,-0.6187241 0.329986,-0.2180265 0.860321,-0.2180265 0.288738,0 0.536228,0.058926 0.253382,0.053033 0.471409,0.1532078 l -0.176779,0.4124827 q -0.200348,-0.082496 -0.418375,-0.1414226 -0.218027,-0.058926 -0.447838,-0.058926 -0.318201,0 -0.489087,0.106067 -0.164993,0.1001743 -0.164993,0.2769526 0,0.1296375 0.0766,0.2239192 0.0766,0.088389 0.253382,0.1767783 0.182671,0.082497 0.483194,0.2003488 0.300523,0.1119596 0.512657,0.2298118 0.212134,0.1178522 0.324094,0.2887382 0.111959,0.164993 0.111959,0.418375 z"
       id="path439" />
  </g>
</svg>
